<?xml version="1.0" encoding="UTF-8" standalone="no"?>
<!-- Created with Inkscape (http://www.inkscape.org/) -->

<svg
   width="135.46666mm"
   height="135.46666mm"
   viewBox="0 0 135.46666 135.46666"
   version="1.1"
   id="svg13"
   inkscape:version="1.1.1 (3bf5ae0d25, 2021-09-20)"
   sodipodi:docname="discord.svg"
   xmlns:inkscape="http://www.inkscape.org/namespaces/inkscape"
   xmlns:sodipodi="http://sodipodi.sourceforge.net/DTD/sodipodi-0.dtd"
   xmlns="http://www.w3.org/2000/svg"
   xmlns:svg="http://www.w3.org/2000/svg">
  <sodipodi:namedview
     id="namedview15"
     pagecolor="#ffffff"
     bordercolor="#666666"
     borderopacity="1.0"
     inkscape:pageshadow="2"
     inkscape:pageopacity="0.0"
     inkscape:pagecheckerboard="0"
     inkscape:document-units="mm"
     showgrid="false"
     inkscape:zoom="0.98782333"
     inkscape:cx="241.9461"
     inkscape:cy="253.58786"
     inkscape:window-width="1318"
     inkscape:window-height="720"
     inkscape:window-x="48"
     inkscape:window-y="48"
     inkscape:window-maximized="0"
     inkscape:current-layer="layer1">
    <sodipodi:guide
       position="0,135.46666"
       orientation="0,511.99997"
       id="guide669" />
    <sodipodi:guide
       position="135.46666,135.46666"
       orientation="511.99997,0"
       id="guide671" />
    <sodipodi:guide
       position="135.46666,0"
       orientation="0,-511.99997"
       id="guide673" />
    <sodipodi:guide
       position="0,0"
       orientation="-511.99997,0"
       id="guide675" />
  </sodipodi:namedview>
  <defs
     id="defs10" />
  <g
     inkscape:label="Ebene 1"
     inkscape:groupmode="layer"
     id="layer1"
     transform="translate(419.60433,-113.79995)">
    <path
       id="path109"
       style="fill:#000000;stroke-width:1.01035"
       d="M 256 0 A 255.99999 255.99999 0 0 0 0 256 A 255.99999 255.99999 0 0 0 256 512 A 255.99999 255.99999 0 0 0 512 256 A 255.99999 255.99999 0 0 0 256 0 z M 213.02734 141.73047 A 0.96429109 0.96429109 0 0 1 214.00977 142.19336 A 157.92997 157.92997 0 0 1 221.73047 157.80664 A 228.49517 228.49517 0 0 1 290.31641 157.80664 A 172.17495 172.17495 0 0 1 297.91797 142.19336 A 0.9265358 0.9265358 0 0 1 298.89844 141.73047 A 247.48353 247.48353 0 0 1 359.96484 160.66211 A 0.76531041 0.76531041 0 0 1 360.35352 161.01758 L 360.35352 161.01953 C 394.23229 210.83053 410.96419 267.01753 404.70703 331.70312 A 0.96020946 0.96020946 0 0 1 404.31836 332.39453 A 247.98506 247.98506 0 0 1 329.28516 370.24414 A 0.95102574 0.95102574 0 0 1 328.23242 369.88672 A 199.51897 199.51897 0 0 1 312.91992 344.98047 A 0.956638 0.956638 0 0 1 313.42969 343.64844 A 153.77994 153.77994 0 0 0 336.84375 332.51172 A 0.96122986 0.96122986 0 0 0 336.92578 330.91602 C 335.34159 329.73797 333.7696 328.50143 332.26758 327.26367 A 0.92449497 0.92449497 0 0 0 331.28516 327.14453 C 282.76959 349.55135 229.61627 349.55135 180.51953 327.14453 A 0.92806643 0.92806643 0 0 0 179.54883 327.27539 C 178.0473 328.51315 176.47478 329.73797 174.90234 330.91602 A 0.96174009 0.96174009 0 0 0 174.99609 332.51172 A 163.86469 163.86469 0 0 0 198.39844 343.66016 A 0.94898491 0.94898491 0 0 1 198.91797 344.98047 A 177.65406 177.65406 0 0 1 183.59375 369.90039 A 0.96939318 0.96939318 0 0 1 182.54102 370.24609 A 248.81057 248.81057 0 0 1 107.62891 332.39453 A 1.0285772 1.0285772 0 0 1 107.24023 331.69141 C 102.01368 275.74007 112.66796 219.08872 151.56055 161.00781 A 0.87347429 0.87347429 0 0 1 151.96094 160.66211 A 246.78149 246.78149 0 0 1 213.02734 141.73047 z M 206.25 237.17383 C 191.23205 237.17383 179.28906 250.73915 179.28906 267.39844 C 179.28906 284.05773 191.46827 297.62305 206.25 297.62305 C 221.26689 297.62305 233.21094 284.05875 233.21094 267.39844 C 233.44716 250.85805 221.38523 237.17383 206.25 237.17383 z M 305.93555 237.17383 C 290.91809 237.17383 278.97461 250.73915 278.97461 267.39844 C 278.97461 284.05773 291.15434 297.62305 305.93555 297.62305 C 321.07184 297.62305 332.89648 284.05875 332.89648 267.39844 C 333.1327 250.85805 321.07184 237.17383 305.93555 237.17383 z "
       transform="matrix(0.26458333,0,0,0.26458333,-419.60433,113.79995)" />
  </g>
</svg>
