<?xml version="1.0" encoding="UTF-8" standalone="no"?>
<!-- Created with Inkscape (http://www.inkscape.org/) -->

<svg
   width="135.46666mm"
   height="135.46666mm"
   viewBox="0 0 135.46666 135.46666"
   version="1.1"
   id="svg13"
   inkscape:version="1.1.1 (3bf5ae0d25, 2021-09-20)"
   sodipodi:docname="github.svg"
   xmlns:inkscape="http://www.inkscape.org/namespaces/inkscape"
   xmlns:sodipodi="http://sodipodi.sourceforge.net/DTD/sodipodi-0.dtd"
   xmlns="http://www.w3.org/2000/svg"
   xmlns:svg="http://www.w3.org/2000/svg">
  <sodipodi:namedview
     id="namedview15"
     pagecolor="#ffffff"
     bordercolor="#666666"
     borderopacity="1.0"
     inkscape:pageshadow="2"
     inkscape:pageopacity="0.0"
     inkscape:pagecheckerboard="0"
     inkscape:document-units="mm"
     showgrid="false"
     inkscape:zoom="0.98782333"
     inkscape:cx="241.9461"
     inkscape:cy="253.58786"
     inkscape:window-width="1318"
     inkscape:window-height="720"
     inkscape:window-x="48"
     inkscape:window-y="48"
     inkscape:window-maximized="0"
     inkscape:current-layer="layer1">
    <sodipodi:guide
       position="0,135.46666"
       orientation="0,511.99997"
       id="guide669" />
    <sodipodi:guide
       position="135.46666,135.46666"
       orientation="511.99997,0"
       id="guide671" />
    <sodipodi:guide
       position="135.46666,0"
       orientation="0,-511.99997"
       id="guide673" />
    <sodipodi:guide
       position="0,0"
       orientation="-511.99997,0"
       id="guide675" />
  </sodipodi:namedview>
  <defs
     id="defs10" />
  <g
     inkscape:label="Ebene 1"
     inkscape:groupmode="layer"
     id="layer1"
     transform="translate(419.60433,-113.79995)">
    <path
       d="m -374.29396,220.15225 c 0,0.54624 -0.62817,0.98323 -1.42022,0.98323 -0.90128,0.082 -1.52946,-0.35505 -1.52946,-0.98323 0,-0.54623 0.62818,-0.98322 1.42022,-0.98322 0.81935,-0.082 1.52946,0.35505 1.52946,0.98322 z m -8.49398,-1.22903 c -0.19119,0.54624 0.35505,1.17441 1.17441,1.33829 0.71011,0.27311 1.52946,0 1.69333,-0.54624 0.16387,-0.54624 -0.35505,-1.17442 -1.17441,-1.42022 -0.71011,-0.19118 -1.50215,0.082 -1.69333,0.62817 z m 12.07184,-0.4643 c -0.79206,0.19119 -1.33829,0.71011 -1.25636,1.33829 0.082,0.54623 0.79205,0.90128 1.6114,0.7101 0.79205,-0.19119 1.33828,-0.7101 1.25635,-1.25634 -0.082,-0.51893 -0.81935,-0.87399 -1.61139,-0.79205 z m 17.97118,-104.65897 c -37.88152,0 -66.85938,28.75937 -66.85938,66.64089 0,30.28883 19.06367,56.20777 46.29356,65.32992 3.49592,0.62817 4.72496,-1.52947 4.72496,-3.30473 0,-1.69334 -0.082,-11.03399 -0.082,-16.76948 0,0 -19.11829,4.09678 -23.13313,-8.13892 0,0 -3.11355,-7.94774 -7.59269,-9.99613 0,0 -6.25441,-4.28797 0.43699,-4.20602 0,0 6.80064,0.54624 10.54237,7.04645 5.98129,10.54236 16.00474,7.51075 19.91033,5.70817 0.62817,-4.36989 2.40344,-7.40151 4.36989,-9.20409 -15.26731,-1.69333 -30.67119,-3.90559 -30.67119,-30.17958 0,-7.51076 2.0757,-11.27979 6.44559,-16.08667 -0.7101,-1.77528 -3.03161,-9.09484 0.71011,-18.54474 5.70817,-1.77528 18.84517,7.3742 18.84517,7.3742 5.46237,-1.52947 11.33441,-2.32151 17.15183,-2.32151 5.81743,0 11.68947,0.79204 17.15184,2.32151 0,0 13.13699,-9.17678 18.84517,-7.3742 3.74172,9.47721 1.42021,16.76946 0.7101,18.54474 4.3699,4.83419 7.04646,8.60323 7.04646,16.08667 0,26.35593 -16.08668,28.45894 -31.35399,30.17958 2.51269,2.15764 4.64301,6.25441 4.64301,12.6727 0,9.20409 -0.082,20.59312 -0.082,22.83269 0,1.77528 1.25634,3.9329 4.72494,3.30473 27.31184,-9.06752 45.82927,-34.98646 45.82927,-65.27529 0,-37.88152 -30.72582,-66.64089 -68.60734,-66.64089 z m -40.31227,94.19854 c -0.35506,0.27312 -0.27312,0.90129 0.19118,1.42021 0.43699,0.43699 1.06516,0.62817 1.42021,0.27312 0.35506,-0.27312 0.27312,-0.90129 -0.19118,-1.42021 -0.43699,-0.43699 -1.06516,-0.62817 -1.42021,-0.27312 z m -2.94968,-2.21226 c -0.19119,0.35505 0.082,0.79204 0.62817,1.06516 0.43699,0.27312 0.98323,0.19118 1.17441,-0.19118 0.19118,-0.35506 -0.082,-0.79204 -0.62817,-1.06517 -0.54624,-0.16387 -0.98323,-0.082 -1.17441,0.19119 z m 8.84903,9.72302 c -0.43698,0.35505 -0.27311,1.17441 0.35506,1.69332 0.62817,0.62818 1.42021,0.71011 1.77527,0.27313 0.35505,-0.35506 0.19118,-1.17441 -0.35506,-1.69334 -0.60085,-0.62817 -1.42021,-0.71011 -1.77527,-0.27311 z m -3.11354,-4.01485 c -0.43699,0.27313 -0.43699,0.98323 0,1.6114 0.43698,0.62818 1.17441,0.90129 1.52946,0.62818 0.43699,-0.35506 0.43699,-1.06517 0,-1.69334 -0.38237,-0.62817 -1.09248,-0.9013 -1.52946,-0.54624 z"
       id="path2"
       style="fill:#000000;stroke-width:0.273118" />
  </g>
</svg>
